<?xml version="1.0" standalone="no"?>
<!DOCTYPE svg PUBLIC "-//W3C//DTD SVG 20010904//EN"
 "http://www.w3.org/TR/2001/REC-SVG-20010904/DTD/svg10.dtd">
<svg version="1.0" xmlns="http://www.w3.org/2000/svg"
 width="272.000000pt" height="272.000000pt" viewBox="0 0 272.000000 272.000000"
 preserveAspectRatio="xMidYMid meet">
<metadata>
Created by potrace 1.11, written by Peter Selinger 2001-2013
</metadata>
<g transform="translate(0.000000,272.000000) scale(0.100000,-0.100000)"
fill="#000000" stroke="none">
<path d="M895 2199 c-35 -10 -75 -67 -75 -106 0 -36 21 -70 103 -166 l66 -78
-87 -107 c-162 -196 -187 -247 -159 -314 27 -63 53 -69 236 -56 33 3 35 1 51
-48 9 -29 23 -59 31 -67 32 -31 37 -31 307 8 64 10 103 15 135 19 62 8 132 19
152 22 11 2 90 13 175 25 148 19 207 28 240 34 8 2 40 6 70 10 46 6 70 18 140
68 47 34 91 67 99 75 20 19 57 32 92 32 46 0 89 48 89 98 0 55 -7 70 -43 89
-29 15 -72 28 -407 128 -80 24 -371 111 -646 194 -276 83 -510 151 -520 150
-11 0 -32 -5 -49 -10z m289 -148 c127 -38 301 -90 386 -116 85 -25 193 -58
240 -72 47 -14 105 -32 130 -40 25 -8 99 -30 164 -49 66 -19 122 -36 125 -40
5 -5 -67 1 -119 11 -14 2 -50 7 -80 10 -30 3 -80 10 -110 15 -30 5 -127 19
-215 30 -258 33 -269 35 -325 45 -14 2 -50 7 -80 10 -30 3 -62 8 -70 10 -8 2
-42 7 -75 10 -33 4 -65 10 -71 13 -6 4 -47 48 -92 99 -60 69 -79 97 -75 113 3
11 12 20 20 20 9 0 119 -31 247 -69z m31 -275 c28 -4 84 -11 125 -17 41 -5 89
-12 105 -14 34 -4 259 -35 290 -40 11 -1 45 -6 75 -9 30 -4 82 -11 115 -16 33
-5 83 -12 110 -15 126 -15 298 -43 275 -45 -53 -3 -96 -8 -130 -13 -19 -3 -64
-9 -100 -12 -36 -3 -76 -8 -90 -10 -14 -2 -68 -8 -120 -15 -52 -6 -113 -13
-135 -16 -34 -4 -202 -23 -340 -39 -22 -3 -94 -11 -160 -19 -66 -8 -142 -18
-170 -21 -27 -3 -63 -7 -80 -9 -142 -18 -155 -18 -161 -2 -8 20 18 60 127 197
111 139 108 138 166 129 27 -4 71 -11 98 -14z m988 -280 c-33 -27 -50 -33
-118 -41 -27 -3 -77 -10 -110 -15 -33 -5 -78 -11 -100 -15 -22 -3 -53 -7 -70
-10 -46 -7 -101 -15 -153 -21 -26 -3 -58 -7 -72 -9 -55 -9 -157 -24 -195 -29
-88 -12 -131 -17 -156 -21 -107 -18 -119 -15 -119 32 0 24 12 28 115 38 33 3
71 8 85 10 14 2 52 6 85 10 33 3 74 8 90 10 17 3 53 7 80 10 28 3 86 10 130
15 44 5 103 12 130 14 28 3 66 8 85 11 38 5 97 12 200 21 36 4 67 8 69 10 2 2
15 4 28 4 l25 0 -29 -24z"/>
<path d="M778 1855 c-1 -1 -23 -5 -48 -9 -58 -8 -88 -38 -66 -70 12 -18 23
-21 65 -18 81 4 103 16 99 53 -2 22 -10 34 -25 40 -11 4 -23 6 -25 4z"/>
<path d="M455 1773 c-118 -48 -169 -107 -121 -138 19 -13 30 -10 120 35 55 27
103 55 107 62 3 7 3 23 -2 36 -10 27 -45 29 -104 5z"/>
<path d="M213 1558 c-21 -27 -33 -84 -33 -154 0 -67 2 -75 24 -89 39 -26 76 2
66 50 -6 30 0 101 11 126 16 40 -1 79 -35 79 -13 0 -28 -6 -33 -12z"/>
<path d="M296 1224 c-24 -23 -20 -42 17 -75 39 -36 142 -89 173 -89 47 0 56
72 11 84 -13 3 -54 26 -92 50 -78 51 -87 53 -109 30z"/>
<path d="M641 1098 c-15 -5 -21 -16 -21 -36 0 -36 25 -48 125 -59 111 -12 118
-11 135 19 13 25 13 29 -1 43 -18 18 -207 45 -238 33z"/>
<path d="M1008 1052 c-22 -4 -34 -47 -19 -66 6 -7 30 -21 54 -30 27 -10 52
-31 70 -56 30 -42 56 -50 81 -24 19 18 20 28 5 57 -35 69 -136 132 -191 119z"/>
<path d="M1120 772 c-8 -3 -36 -26 -61 -52 -26 -26 -61 -52 -77 -59 -34 -14
-43 -29 -35 -60 9 -34 47 -37 95 -8 89 53 146 123 128 158 -11 20 -30 28 -50
21z"/>
<path d="M710 617 c-17 -4 -31 -12 -31 -17 -1 -6 -2 -16 -3 -22 -1 -7 4 -21
12 -30 20 -24 123 -25 146 -2 20 19 20 48 1 64 -17 14 -83 18 -125 7z"/>
</g>
</svg>
